<svg class="site-logo__icon" width="200" height="40" viewBox="0 0 145 30" fill="none" xmlns="http://www.w3.org/2000/svg">
          <linearGradient id="header-logo-1" x1="6.14147" y1="26.8589" x2="22.5576" y2="3.41985" gradientUnits="userSpaceOnUse">
    <stop stop-color="#3B3E90"></stop>
    <stop offset="0.35" stop-color="#3B3E90"></stop>
    <stop offset="0.3868" stop-color="#334B92"></stop>
    <stop offset="0.5391" stop-color="#00758C"></stop>
    <stop offset="0.6643" stop-color="#008D79"></stop>
    <stop offset="0.756" stop-color="#009A66"></stop>
    <stop offset="0.8045" stop-color="#009F5E"></stop>
    <stop offset="1" stop-color="#009F5E"></stop>
</linearGradient>
            <path d="M12.1099 29.269C13.5174 29.4909 14.9507 29.5041 16.3609 29.3054V24.1665C15.6806 24.1245 15.0013 24.0414 14.3325 23.9083C13.5768 23.7585 12.8353 23.5443 12.1099 23.2823V29.269ZM18.3722 24.1549V28.8715C20.6014 28.2207 22.7052 27.0166 24.4633 25.256C25.9835 23.7354 27.2446 21.7544 27.904 19.6298C25.5602 22.2675 21.9274 23.9076 18.3722 24.1549ZM0.0461426 15.0959V15.1829C0.0566198 18.8288 1.45358 22.474 4.23598 25.256C5.93398 26.9562 7.95469 28.1355 10.0997 28.8006V22.3898C9.79099 22.2253 9.48436 22.0517 9.18715 21.8651C4.25414 18.7823 1.2388 13.4743 2.4112 7.24485C0.799104 9.59021 0.0538259 12.6024 0.0461426 15.0959ZM4.69278 4.58615C2.7779 10.2487 4.87718 16.6969 10.0997 20.0598V15.1389H12.1099V21.1235C12.9527 21.483 13.8268 21.7589 14.7212 21.9357C15.2622 22.0426 15.8115 22.1124 16.3609 22.1505V17.6048H18.3722V22.1414C22.5763 21.805 26.3666 19.518 28.6147 15.92C28.6206 15.9105 28.6262 15.8997 28.6318 15.8903C28.7027 14.5304 28.5801 13.1638 28.2658 11.8325C25.9688 14.0745 22.898 15.2856 19.7726 15.2856C17.578 15.2856 15.3582 14.6921 13.3641 13.445C10.6162 11.7288 8.70136 9.04492 7.9725 5.88912C7.71057 4.75487 7.61697 3.60804 7.68018 2.47728C6.61884 3.03689 5.61478 3.74043 4.69278 4.58615ZM16.3696 1.88447C16.6543 3.08859 17.3929 4.117 18.4497 4.77653C20.1886 5.86397 22.3643 5.66905 23.8556 4.44956C21.6561 2.48741 18.9959 1.32521 16.2502 0.959114C16.2579 1.26617 16.2987 1.57567 16.3696 1.88447ZM9.79309 1.57462C9.59332 2.84197 9.63453 4.14844 9.93173 5.4357C10.5405 8.06856 12.1368 10.307 14.4292 11.7396C18.7633 14.4472 24.3728 13.4628 27.5582 9.64471C27.005 8.30959 26.2378 7.04434 25.2623 5.89367C24.0508 6.94024 22.503 7.50021 20.9265 7.50021C19.715 7.50021 18.4871 7.17149 17.3845 6.48228C15.8748 5.5398 14.8211 4.06915 14.4139 2.34418C14.2962 1.84255 14.2438 1.33499 14.2428 0.833008C12.7379 0.843488 11.2358 1.09221 9.79309 1.57462Z" fill="url(#header-logo-1)"></path>
            <path d="M87.4391 19.6676L88.5587 17.3855L89.6795 19.6676H87.4391ZM89.7923 15.1393H87.3263L82.7697 24.1956H85.2155L86.3281 21.9285H90.7893L91.9027 24.1956H94.3484L89.7923 15.1393Z" fill="#612fc0"></path>
            <path d="M132.88 24.1959V15.1393H130.585V21.0492L126.277 15.1393H123.458V24.1959H125.753V18.2054L130.236 24.1959H132.88Z" fill="#612fc0"></path>
            <path d="M107.575 15.1393H105.285L102.459 20.1598L99.8883 15.1568H97.424V24.1956H99.7143V19.4105L101.258 22.2785H103.548L103.539 22.2607H103.741L105.282 19.3983V24.1956H107.572V15.1568H107.565L107.575 15.1393Z" fill="#612fc0"></path>
            <path d="M40.3372 18.8607L43.4046 15.1393H40.7486L37.2091 19.311V15.1393H34.917V24.1868H37.2091V22.6561L38.9154 20.5853L41.0971 24.1868H43.5638L40.3372 18.8607Z" fill="#612fc0"></path>
            <path d="M50.5975 19.6676L51.7172 17.3855L52.8379 19.6676H50.5975ZM52.9507 15.1393H50.4847L45.9282 24.1956H48.3739L49.4866 21.9285H53.9478L55.0611 24.1956H57.5069L52.9507 15.1393Z" fill="#612fc0"></path>
            <path d="M70.9097 15.1393V17.3974H75.0566V24.1956H77.314V17.3974H81.4606V15.1393H70.9097Z" fill="#612fc0"></path>
            <path d="M115.64 16.9014C117.309 16.9014 118.318 17.9371 118.318 19.674C118.318 21.4108 117.309 22.434 115.64 22.434C113.971 22.434 112.964 21.4112 112.964 19.674C112.964 17.9371 113.971 16.9014 115.64 16.9014ZM115.64 14.7681C112.646 14.7681 110.541 17.1267 110.541 19.674C110.541 22.2216 112.646 24.5673 115.64 24.5673C118.634 24.5673 120.74 22.2216 120.74 19.674C120.74 17.1264 118.634 14.7681 115.64 14.7681Z" fill="#612fc0"></path>
            <path d="M142.45 15.1393V20.374C142.45 21.6574 141.734 22.4234 140.533 22.4234C139.332 22.4234 138.615 21.6574 138.615 20.374V15.1393H136.35V20.5154C136.35 21.4841 136.709 22.4315 137.337 23.1151C138.089 23.935 139.194 24.3685 140.533 24.3685C143.407 24.3685 144.716 22.3714 144.716 20.5154V15.1393H142.45Z" fill="#612fc0"></path>
            <path d="M64.5925 18.5838C63.3332 18.2963 62.8861 18.1003 62.8861 17.5711V17.5438C62.8861 17.0258 63.4442 16.8417 63.922 16.8417C64.7692 16.8417 65.6996 17.1624 66.5507 17.7464L67.7633 16.0225C66.7379 15.2191 65.5026 14.8282 63.9897 14.8282C61.851 14.8282 60.4139 16.018 60.4139 17.7887V17.8159C60.4139 19.7613 61.9994 20.2839 63.915 20.7241C65.1911 21.0217 65.5798 21.255 65.5798 21.7231V21.7504C65.5798 22.2223 65.153 22.4927 64.4085 22.4927C63.3227 22.4927 62.2949 22.1196 61.3516 21.3839L60.0018 23.0069C61.1106 23.9745 62.6378 24.5065 64.3138 24.5065C66.6195 24.5065 68.0521 23.351 68.0521 21.4915V21.4646C68.0521 19.7019 66.6694 19.0382 64.5925 18.5838Z" fill="#612fc0"></path>
          </svg>